<?xml version="1.0" encoding="UTF-8" ?>
<!DOCTYPE svg PUBLIC "-//W3C//DTD SVG 1.1//EN" "http://www.w3.org/Graphics/SVG/1.1/DTD/svg11.dtd">
<svg width="1312pt" height="762pt" viewBox="0 0 1312 762" version="1.1" xmlns="http://www.w3.org/2000/svg">
<path fill="#fdfdfe" d=" M 0.00 0.00 L 1312.00 0.00 L 1312.00 762.00 L 0.00 762.00 L 0.00 0.00 Z" />
<path fill="#b80a34" d=" M 405.01 183.16 C 422.26 178.42 439.68 174.15 456.90 169.20 C 458.52 168.78 460.20 168.14 461.92 168.46 C 479.24 172.50 496.33 177.68 513.79 181.12 C 515.10 181.40 516.43 181.71 517.72 182.12 C 519.05 182.41 520.40 182.74 521.72 183.13 C 525.51 184.07 529.34 184.89 533.07 186.08 C 553.46 190.94 573.71 196.38 594.05 201.46 C 614.16 206.60 634.37 211.38 654.44 216.66 C 662.20 218.57 669.93 220.68 677.79 222.09 C 679.11 222.40 680.45 222.73 681.77 223.10 C 683.08 223.41 684.42 223.75 685.73 224.12 C 701.76 228.08 717.75 232.18 733.75 236.26 C 736.80 236.92 739.96 236.61 743.07 236.66 C 876.37 236.64 1009.68 236.68 1142.99 236.64 C 1143.02 246.09 1142.99 255.55 1143.00 265.00 C 1006.01 265.00 869.01 264.99 732.02 265.01 C 724.78 264.92 718.01 261.95 710.94 260.74 C 709.62 260.47 708.19 260.56 707.06 259.74 C 702.98 259.09 699.02 257.91 695.05 256.82 C 651.37 245.91 607.74 234.77 564.05 223.88 C 558.87 222.91 553.90 220.77 548.60 220.52 C 548.29 220.29 547.67 219.83 547.36 219.60 C 545.87 219.51 544.27 219.67 542.98 218.78 C 541.62 218.56 540.26 218.36 538.98 217.85 C 537.62 217.60 536.27 217.35 534.99 216.84 C 510.26 210.85 485.67 204.21 460.93 198.28 C 439.20 203.70 417.73 210.31 396.02 215.86 C 393.69 216.71 391.29 217.30 388.89 217.89 C 379.84 220.72 370.38 221.92 361.47 225.28 C 323.85 235.01 286.49 245.73 248.98 255.85 C 245.35 256.96 241.69 257.99 237.98 258.80 C 234.81 260.18 231.35 260.60 228.02 261.38 C 210.54 265.90 193.22 270.97 175.75 275.49 C 173.39 266.18 170.67 256.96 168.24 247.67 C 194.51 240.61 220.68 233.15 246.96 226.11 C 253.75 223.97 260.64 222.17 267.59 220.70 C 309.77 209.27 351.91 197.69 394.05 186.10 C 397.66 185.00 401.33 184.02 405.01 183.16 Z" />
<path fill="#0e5994" d=" M 544.45 297.54 C 551.62 294.30 560.04 294.40 567.52 296.50 C 571.53 298.51 575.17 301.11 578.77 303.78 C 578.75 304.22 578.72 305.10 578.70 305.54 C 575.52 309.35 572.40 313.21 569.16 316.97 C 565.67 313.56 560.56 311.35 555.70 312.95 C 546.70 315.67 542.27 326.07 543.31 334.87 C 543.79 343.24 550.18 351.71 558.97 352.21 C 563.08 352.41 566.14 349.42 569.73 348.00 C 572.56 352.15 576.37 355.61 579.02 359.89 C 569.91 371.46 551.38 373.39 539.82 364.32 C 522.12 351.49 519.20 323.72 532.95 306.99 C 535.76 303.85 538.67 300.64 542.39 298.57 C 542.90 298.31 543.93 297.80 544.45 297.54 Z" />
<path fill="#0e5994" d=" M 214.96 297.90 C 215.21 297.72 215.71 297.35 215.97 297.17 C 222.11 296.89 228.27 297.24 234.42 297.03 C 242.75 320.55 250.15 344.43 258.85 367.82 C 252.07 368.14 245.28 368.01 238.50 367.92 C 237.26 363.12 235.09 358.62 234.02 353.78 C 227.60 353.62 221.17 353.78 214.74 353.68 C 212.71 358.17 211.68 363.04 209.72 367.55 C 203.74 368.51 197.30 367.96 191.16 367.73 C 199.12 344.47 207.28 321.25 214.96 297.90 Z" />
<path fill="#0e5994" d=" M 267.60 297.37 C 274.98 296.84 282.39 297.08 289.78 297.20 C 293.96 308.29 298.54 319.21 302.81 330.26 C 304.12 333.13 305.24 336.09 306.01 339.16 C 307.49 335.58 308.66 331.88 310.18 328.32 C 310.73 326.60 311.42 324.92 312.15 323.27 C 315.42 314.54 319.18 306.00 322.32 297.22 C 329.71 297.02 337.12 296.94 344.50 297.29 C 344.36 319.86 344.45 342.44 344.46 365.02 C 344.37 365.98 344.53 367.96 343.05 367.88 C 337.20 368.19 331.34 367.91 325.48 367.98 C 325.36 357.60 325.49 347.22 325.43 336.84 C 321.02 347.07 317.04 357.49 313.11 367.91 C 308.46 368.04 303.81 368.05 299.17 367.91 C 295.16 357.79 291.29 347.60 287.12 337.54 C 286.40 339.93 286.68 342.45 286.68 344.92 C 286.71 352.59 286.63 360.25 286.71 367.92 C 281.09 368.03 275.47 368.04 269.85 367.98 C 268.57 368.21 267.49 367.09 267.71 365.86 C 267.61 343.03 267.82 320.19 267.60 297.37 Z" />
<path fill="#0e5994" d=" M 360.26 297.13 C 375.53 297.07 390.81 297.02 406.09 297.16 C 406.14 302.04 406.18 306.93 406.06 311.81 C 397.23 312.14 388.34 311.28 379.56 312.31 C 379.63 316.11 379.63 319.91 379.70 323.71 C 386.62 323.71 393.55 323.75 400.47 323.69 C 400.56 328.95 400.57 334.21 400.43 339.47 C 393.52 339.41 386.61 339.44 379.70 339.45 C 379.58 343.80 379.57 348.15 379.73 352.51 C 388.41 352.48 397.08 352.52 405.76 352.48 C 405.87 357.64 405.80 362.80 405.84 367.95 C 390.64 368.02 375.44 368.05 360.24 367.94 C 360.33 344.34 360.30 320.73 360.26 297.13 Z" />
<path fill="#0e5994" d=" M 422.18 297.10 C 433.82 297.11 445.46 297.00 457.09 297.15 C 461.84 297.09 466.33 298.99 470.21 301.60 C 473.97 305.46 476.55 310.54 476.73 315.99 C 477.16 322.30 476.78 329.32 472.31 334.26 C 470.60 336.43 468.09 337.74 466.23 339.77 C 468.28 342.47 468.80 345.90 470.18 348.94 C 472.04 355.38 474.67 361.55 476.98 367.83 C 470.90 368.21 464.80 367.84 458.72 368.07 C 455.63 360.32 452.70 352.50 449.87 344.65 C 447.05 344.58 444.22 344.56 441.41 344.53 C 441.13 352.33 441.36 360.14 441.28 367.95 C 434.92 368.03 428.55 368.01 422.18 367.97 C 422.17 344.35 422.18 320.72 422.18 297.10 Z" />
<path fill="#0e5994" d=" M 491.83 297.10 C 498.40 297.15 504.97 296.87 511.53 297.31 C 511.27 320.38 511.59 343.46 511.37 366.53 C 511.23 366.82 510.93 367.39 510.78 367.68 C 504.52 368.42 498.14 367.81 491.84 367.97 C 491.79 344.35 491.81 320.73 491.83 297.10 Z" />
<path fill="#0e5994" d=" M 598.19 322.23 C 601.15 313.94 603.67 305.41 606.91 297.27 C 613.42 296.87 619.97 297.11 626.50 297.19 C 634.36 320.77 642.16 344.37 650.03 367.95 C 643.50 368.01 636.98 368.05 630.45 367.94 C 628.97 363.20 627.20 358.57 625.85 353.80 C 619.22 353.64 612.58 353.69 605.95 353.77 C 604.39 358.51 602.66 363.20 601.22 367.99 C 595.21 368.01 589.20 367.99 583.19 368.01 C 587.94 352.67 593.33 337.53 598.19 322.23 Z" />
<path fill="#0e5994" d=" M 658.71 297.09 C 665.50 297.13 672.30 296.99 679.09 297.13 C 681.13 296.92 681.56 299.29 682.30 300.68 C 686.22 309.07 690.39 317.34 694.50 325.64 C 695.97 328.55 697.17 331.62 699.15 334.25 C 699.40 321.87 699.22 309.49 699.24 297.10 C 705.40 297.07 711.56 297.06 717.72 297.12 C 717.73 320.72 717.65 344.31 717.76 367.91 C 710.58 368.06 703.40 368.06 696.22 367.91 C 690.20 355.42 683.72 343.15 677.80 330.62 C 676.92 343.02 677.62 355.50 677.42 367.94 C 671.18 368.05 664.94 367.98 658.70 368.00 C 658.70 344.36 658.67 320.72 658.71 297.09 Z" />
<path fill="#0e5994" d=" M 768.23 297.17 C 783.55 297.01 798.88 297.06 814.21 297.14 C 814.17 302.03 814.25 306.93 814.14 311.82 C 805.32 312.21 796.39 311.13 787.65 312.41 C 787.77 316.15 787.74 319.90 787.69 323.65 C 794.62 323.76 801.55 323.76 808.49 323.65 C 808.74 328.92 808.66 334.20 808.49 339.48 C 801.56 339.35 794.63 339.57 787.70 339.33 C 787.78 348.86 787.70 358.39 787.75 367.92 C 781.23 368.04 774.71 368.07 768.20 367.89 C 768.31 344.32 768.25 320.74 768.23 297.17 Z" />
<path fill="#0e5994" d=" M 838.03 300.73 C 838.52 299.28 838.73 296.79 840.90 297.11 C 846.83 297.04 852.77 297.04 858.71 297.16 C 865.09 316.52 871.99 335.70 878.48 355.02 C 878.48 356.13 878.83 357.10 879.53 357.94 C 880.39 361.15 881.15 364.48 882.93 367.33 C 876.38 368.79 869.51 367.63 862.84 368.00 C 861.27 363.24 859.60 358.51 858.00 353.77 C 851.71 353.66 845.42 353.70 839.13 353.74 C 838.79 354.30 838.10 355.41 837.76 355.97 C 837.20 358.71 836.01 361.25 835.19 363.91 C 834.71 365.17 834.41 366.48 834.18 367.80 C 827.92 368.19 821.64 367.95 815.38 367.96 C 822.89 345.54 830.75 323.23 838.03 300.73 Z" />
<path fill="#0e5994" d=" M 890.35 297.19 C 897.68 297.01 905.03 297.05 912.37 297.16 C 917.46 310.84 923.35 324.22 927.97 338.06 C 928.23 338.21 928.75 338.50 929.01 338.64 C 929.47 335.72 930.80 333.06 931.88 330.34 C 936.29 319.28 940.73 308.24 945.04 297.14 C 952.21 297.05 959.38 297.05 966.56 297.14 C 966.55 320.73 966.47 344.32 966.60 367.91 C 960.34 368.06 954.08 368.04 947.83 367.91 C 947.74 357.84 947.98 347.76 947.72 337.69 C 943.89 345.97 940.90 354.64 937.45 363.10 C 936.60 364.61 936.62 366.92 935.10 367.89 C 930.65 368.20 926.19 367.88 921.74 368.03 C 919.24 361.78 917.02 355.42 914.21 349.30 C 912.61 345.14 911.09 340.95 909.46 336.82 C 909.25 347.18 909.41 357.55 909.39 367.92 C 903.03 368.03 896.67 368.06 890.32 367.90 C 890.43 344.33 890.38 320.76 890.35 297.19 Z" />
<path fill="#0e5994" d=" M 985.54 297.08 C 991.90 297.11 998.26 297.02 1004.62 297.14 C 1004.64 320.72 1004.51 344.30 1004.68 367.88 C 998.30 368.13 991.91 367.94 985.52 368.00 C 985.49 344.36 985.46 320.72 985.54 297.08 Z" />
<path fill="#0e5994" d=" M 1023.56 297.08 C 1029.91 297.08 1036.27 297.09 1042.63 297.08 C 1042.65 314.56 1042.64 332.04 1042.63 349.51 C 1051.36 349.47 1060.09 349.52 1068.82 349.49 C 1069.35 355.62 1069.04 361.77 1069.09 367.92 C 1053.91 368.09 1038.73 367.97 1023.55 367.98 C 1023.52 344.35 1023.52 320.72 1023.56 297.08 Z" />
<path fill="#0e5994" d=" M 1062.35 297.08 C 1068.26 297.15 1074.19 296.96 1080.11 297.14 C 1082.03 296.81 1082.46 298.93 1083.25 300.19 C 1086.74 307.47 1090.37 314.69 1094.23 321.78 C 1095.51 321.91 1095.70 320.41 1096.29 319.59 C 1099.98 311.96 1104.27 304.64 1108.21 297.14 C 1114.47 296.82 1120.78 297.58 1127.00 296.64 C 1125.72 301.20 1122.69 304.99 1120.87 309.34 C 1116.42 317.72 1111.94 326.08 1107.47 334.45 C 1106.31 336.88 1104.32 339.11 1104.33 341.93 C 1104.25 350.62 1104.34 359.31 1104.30 368.00 C 1097.96 367.97 1091.63 368.07 1085.30 367.93 C 1085.35 359.96 1085.28 351.99 1085.34 344.02 C 1085.26 342.52 1085.46 340.93 1084.70 339.59 C 1077.29 325.40 1069.83 311.23 1062.35 297.08 Z" />
<path fill="#fdfdfe" d=" M 441.28 326.81 C 441.36 322.08 441.06 317.34 441.51 312.63 C 445.33 312.94 449.27 312.23 453.00 313.24 C 458.46 315.16 458.77 324.30 453.17 326.29 C 449.29 327.27 445.23 326.69 441.28 326.81 Z" />
<path fill="#fdfdfe" d=" M 615.68 323.66 C 617.90 328.42 619.24 333.56 620.91 338.54 C 617.58 338.54 614.25 338.55 610.93 338.56 C 612.07 333.46 614.12 328.63 615.68 323.66 Z" />
<path fill="#fdfdfe" d=" M 843.20 338.54 C 844.67 333.66 846.29 328.79 848.00 324.00 C 850.46 328.48 851.29 333.81 853.46 338.51 C 850.03 338.55 846.61 338.57 843.20 338.54 Z" />
<path fill="#fdfdfe" d=" M 224.02 323.99 C 226.64 328.40 227.19 333.75 228.97 338.55 C 225.73 338.55 222.50 338.55 219.27 338.56 C 220.67 333.64 222.72 328.93 224.02 323.99 Z" />
<path fill="#0e5994" d=" M 191.26 382.03 C 498.17 381.96 805.09 382.02 1112.01 382.00 C 1116.51 382.12 1121.04 381.74 1125.54 382.15 C 1127.46 382.21 1126.78 384.74 1127.03 385.96 C 1126.97 412.31 1127.01 438.65 1127.00 465.00 C 815.09 464.99 503.18 465.01 191.27 464.99 C 191.29 437.34 191.32 409.68 191.26 382.03 Z" />
<path fill="#fdfdfe" d=" M 431.01 402.97 C 437.86 399.86 445.59 399.67 452.98 399.67 C 460.52 399.90 468.41 400.26 475.25 403.80 C 479.24 405.91 481.74 409.99 482.52 414.36 C 475.33 414.42 468.13 414.40 460.94 414.38 C 459.24 409.51 453.22 409.48 448.95 409.72 C 446.56 409.84 442.76 411.02 443.61 414.12 C 444.67 416.14 447.12 415.59 448.99 415.85 C 458.77 418.06 469.28 417.43 478.60 421.55 C 486.38 425.47 486.28 437.84 479.12 442.32 C 469.93 448.19 458.42 447.63 447.96 447.52 C 441.01 447.17 433.60 446.41 427.74 442.30 C 424.54 440.16 423.39 436.23 423.07 432.59 C 430.47 432.61 437.87 432.63 445.27 432.58 C 445.75 433.52 446.22 434.47 446.70 435.43 C 451.42 437.34 456.94 437.27 461.66 435.36 C 461.68 433.79 461.66 432.23 461.57 430.68 C 454.21 428.70 446.50 428.14 438.95 427.15 C 437.25 426.70 435.51 426.41 433.77 426.26 C 430.01 425.04 425.97 423.00 424.62 418.99 C 421.64 413.03 425.14 405.56 431.01 402.97 Z" />
<path fill="#fdfdfe" d=" M 922.03 399.90 C 932.01 399.44 942.82 399.08 951.79 404.19 C 956.95 407.06 959.90 412.43 961.29 418.00 C 959.95 418.72 958.53 419.27 956.99 419.11 C 951.36 419.07 945.72 419.11 940.10 419.05 C 939.18 416.23 937.75 413.36 934.96 411.98 C 930.62 410.02 925.62 410.68 921.36 412.51 C 920.20 413.73 919.00 414.92 917.82 416.12 C 916.43 420.83 916.17 425.78 917.63 430.52 C 921.72 439.28 937.54 438.41 939.96 428.64 C 946.84 428.52 953.73 428.72 960.62 428.51 C 960.69 435.50 955.79 441.95 949.41 444.51 C 941.09 447.95 931.87 447.78 923.04 447.47 C 915.64 446.96 907.65 445.34 902.24 439.87 C 895.47 432.49 894.91 420.84 898.96 412.01 C 903.29 403.60 913.16 400.38 922.03 399.90 Z" />
<path fill="#fdfdfe" d=" M 268.16 401.32 C 274.45 401.20 280.74 401.30 287.04 401.25 C 287.13 416.21 287.28 431.19 286.96 446.15 C 281.61 446.13 276.27 446.20 270.93 446.16 C 269.14 446.55 267.60 444.81 267.94 443.08 C 268.07 429.16 267.67 415.23 268.16 401.32 Z" />
<path fill="#fdfdfe" d=" M 328.27 401.27 C 335.39 401.40 342.55 400.98 349.66 401.45 C 356.44 408.56 362.61 416.25 369.56 423.20 C 369.75 415.86 369.49 408.52 369.70 401.19 C 375.83 401.49 381.99 400.88 388.10 401.57 C 388.00 415.39 388.09 429.21 388.06 443.04 C 388.41 444.79 386.84 446.59 385.01 446.16 C 379.02 446.17 373.03 446.16 367.04 446.13 C 360.29 438.82 353.79 431.26 346.96 424.05 L 346.55 424.41 C 346.27 431.46 346.41 438.54 346.52 445.60 C 340.51 446.66 334.35 446.07 328.28 446.02 C 328.29 431.10 328.31 416.19 328.27 401.27 Z" />
<path fill="#fdfdfe" d=" M 517.37 401.28 C 523.72 401.33 530.08 401.06 536.42 401.45 C 536.19 410.66 536.26 419.88 536.35 429.09 C 536.26 431.93 538.64 434.13 541.14 435.01 C 545.54 436.43 550.38 436.43 554.80 435.07 C 556.94 434.21 559.63 432.80 559.60 430.13 C 559.90 420.58 559.70 411.00 559.68 401.44 C 566.06 401.07 572.46 401.34 578.85 401.27 C 578.77 410.85 578.89 420.42 578.80 430.00 C 579.28 438.38 571.94 444.79 564.18 446.10 C 556.24 447.92 548.01 447.79 539.93 447.34 C 534.76 446.83 529.45 446.00 524.89 443.39 C 520.54 440.89 517.42 436.16 517.44 431.08 C 517.33 421.15 517.47 411.22 517.37 401.28 Z" />
<path fill="#fdfdfe" d=" M 615.38 401.28 C 627.89 401.25 640.41 401.25 652.92 401.28 C 659.45 401.51 666.68 402.60 671.47 407.48 C 676.01 411.74 675.53 419.86 670.75 423.75 C 668.52 425.48 665.88 426.55 663.38 427.80 C 666.49 432.39 669.17 437.25 672.12 441.94 C 672.85 443.06 673.42 444.29 673.58 445.65 C 673.91 445.76 674.57 445.99 674.90 446.11 C 668.62 446.20 662.34 446.13 656.07 446.16 C 653.05 441.23 650.07 436.28 647.14 431.29 C 642.89 431.27 638.64 431.27 634.40 431.29 C 634.34 436.25 634.52 441.21 634.27 446.16 C 628.02 446.18 621.77 446.06 615.52 446.24 C 615.23 431.26 615.51 416.27 615.38 401.28 Z" />
<path fill="#fdfdfe" d=" M 726.44 401.50 C 734.31 401.09 742.27 401.09 750.15 401.54 C 754.01 410.68 758.15 419.73 762.26 428.77 C 764.49 434.68 767.78 440.13 770.00 446.05 C 763.30 445.87 756.39 446.97 749.84 445.44 C 749.17 443.86 749.52 440.65 747.09 440.88 C 740.56 440.99 733.97 440.41 727.48 441.29 C 727.07 442.72 726.66 444.15 726.30 445.59 C 719.67 446.65 712.81 446.23 706.13 445.83 C 709.75 438.67 712.86 431.28 716.29 424.05 C 719.40 416.42 722.93 408.92 726.44 401.50 Z" />
<path fill="#fdfdfe" d=" M 803.43 401.37 C 810.32 401.18 817.22 401.24 824.12 401.30 C 825.39 401.06 826.10 402.31 826.88 403.06 C 832.66 409.87 838.47 416.67 844.56 423.21 C 844.90 415.97 844.71 408.70 844.67 401.45 C 850.73 401.06 856.81 401.36 862.88 401.25 C 862.87 416.22 862.95 431.20 862.84 446.17 C 855.85 445.77 848.71 446.95 841.84 445.49 C 840.16 442.81 837.75 440.75 835.53 438.56 C 832.80 435.91 830.73 432.69 828.00 430.04 C 825.73 427.86 823.49 425.63 821.72 423.02 C 821.43 430.73 821.70 438.44 821.55 446.15 C 815.54 446.15 809.54 446.16 803.54 446.15 C 803.43 431.23 803.65 416.30 803.43 401.37 Z" />
<path fill="#fdfdfe" d=" M 996.32 401.36 C 1014.08 401.15 1031.84 401.31 1049.60 401.27 C 1049.38 404.91 1049.41 408.56 1049.41 412.20 C 1037.98 412.18 1026.56 412.16 1015.14 412.21 C 1015.16 414.37 1015.20 416.54 1015.27 418.71 C 1025.90 418.61 1036.54 418.71 1047.18 418.65 C 1047.07 422.02 1047.05 425.39 1047.32 428.75 C 1036.70 428.63 1026.07 428.82 1015.46 428.65 C 1015.04 430.89 1014.45 433.20 1015.46 435.38 C 1026.84 435.15 1038.23 435.26 1049.61 435.32 C 1049.38 438.92 1049.41 442.54 1049.39 446.16 C 1031.77 446.15 1014.15 446.15 996.53 446.17 C 996.29 431.23 996.70 416.29 996.32 401.36 Z" />
<path fill="#0e5994" d=" M 634.45 411.18 C 639.65 411.35 644.88 410.97 650.07 411.43 C 652.42 411.55 655.08 413.40 654.72 416.01 C 654.68 417.43 653.58 418.44 652.85 419.55 C 646.95 421.76 640.56 420.40 634.44 420.81 C 634.37 417.60 634.37 414.39 634.45 411.18 Z" />
<path fill="#0e5994" d=" M 737.75 415.29 C 737.94 415.28 738.32 415.26 738.50 415.25 C 740.43 420.06 742.17 424.96 744.00 429.83 C 740.05 429.93 736.11 429.93 732.17 429.80 C 734.14 425.00 735.83 420.10 737.75 415.29 Z" />
<path fill="#0e5994" d=" M 1155.64 429.89 C 1165.72 428.63 1175.65 437.81 1174.90 447.98 C 1175.16 452.98 1172.62 457.71 1169.04 461.05 C 1164.55 464.92 1158.16 465.58 1152.54 464.44 C 1144.52 462.52 1138.55 454.31 1139.43 446.07 C 1140.04 437.70 1147.35 430.62 1155.64 429.89 Z" />
<path fill="#fdfdfe" d=" M 1153.12 433.39 C 1160.40 430.72 1168.67 435.74 1170.69 442.97 C 1173.07 449.97 1169.58 457.88 1163.11 461.31 C 1157.45 463.13 1150.33 462.52 1146.48 457.50 C 1139.66 450.02 1143.05 435.99 1153.12 433.39 Z" />
<path fill="#0e5994" d=" M 1150.33 437.29 C 1155.45 437.61 1161.78 435.69 1165.56 440.28 C 1165.55 442.07 1165.58 443.88 1165.66 445.68 C 1164.25 447.10 1162.71 448.41 1160.82 449.09 C 1162.45 452.00 1164.42 454.70 1166.07 457.60 C 1160.67 459.18 1159.76 452.48 1157.17 449.37 C 1156.31 449.33 1154.61 449.25 1153.76 449.21 C 1153.79 452.04 1154.07 454.91 1153.63 457.73 C 1152.48 458.71 1151.44 458.67 1150.49 457.59 C 1150.14 450.84 1150.48 444.05 1150.33 437.29 Z" />
<path fill="#fdfdfe" d=" M 1153.77 439.86 C 1156.84 440.03 1163.03 439.24 1162.37 444.07 C 1161.03 447.43 1156.65 446.10 1153.84 446.53 C 1153.82 444.30 1153.80 442.08 1153.77 439.86 Z" />
<path fill="#0e5994" d=" M 1115.96 551.15 C 1118.26 547.67 1122.81 547.20 1126.63 547.27 C 1126.67 549.07 1126.72 550.87 1126.80 552.68 C 1123.89 552.26 1121.25 553.21 1119.77 555.85 C 1120.43 557.27 1119.66 558.77 1119.51 560.23 C 1121.37 560.21 1123.25 560.23 1125.14 560.25 C 1124.65 561.97 1124.09 563.67 1123.42 565.32 C 1121.59 565.30 1119.77 565.30 1117.97 565.34 C 1116.84 574.58 1114.03 583.53 1112.43 592.70 C 1110.45 592.78 1108.47 592.86 1106.51 592.96 C 1108.21 583.71 1110.38 574.55 1112.42 565.36 C 1110.90 565.31 1109.40 565.25 1107.92 565.22 C 1108.23 563.54 1108.60 561.89 1108.95 560.23 C 1110.43 560.21 1111.94 560.19 1113.45 560.18 C 1114.18 557.15 1114.42 553.91 1115.96 551.15 Z" />
<path fill="#0e5994" d=" M 1146.42 547.54 C 1152.81 546.18 1160.10 551.20 1160.04 558.00 C 1160.76 564.91 1153.73 571.18 1146.94 569.94 C 1140.85 569.21 1136.24 562.86 1137.38 556.85 C 1138.22 552.35 1141.91 548.47 1146.42 547.54 Z" />
<path fill="#0e5994" d=" M 217.37 548.31 C 219.31 547.77 221.54 547.71 223.46 548.31 C 226.06 552.25 223.47 557.46 225.75 561.45 C 225.79 563.82 225.49 566.34 226.67 568.53 C 226.74 570.55 226.72 572.64 227.55 574.55 C 227.68 576.91 227.74 579.31 228.50 581.58 C 228.70 585.37 229.69 589.06 229.94 592.85 C 228.08 592.83 226.23 592.82 224.37 592.82 C 224.24 590.66 224.16 588.48 223.44 586.43 C 223.28 584.54 223.17 582.64 223.08 580.75 C 217.06 580.28 211.02 580.62 204.98 580.53 C 202.36 584.48 200.01 588.61 197.75 592.77 C 195.44 592.82 193.13 592.83 190.83 592.81 C 199.93 578.14 208.57 563.17 217.37 548.31 Z" />
<path fill="#0e5994" d=" M 244.12 548.00 C 246.12 548.00 248.11 547.99 250.11 548.00 C 246.91 562.94 243.60 577.86 240.49 592.82 C 238.47 592.81 236.45 592.78 234.43 592.75 C 237.74 577.85 241.01 562.94 244.12 548.00 Z" />
<path fill="#0e5994" d=" M 258.52 548.09 C 260.36 548.02 262.19 547.99 264.03 547.96 C 264.21 548.99 264.55 550.07 264.22 551.12 C 261.25 564.39 258.33 577.67 255.51 590.98 C 255.16 594.06 251.24 592.43 249.14 592.86 C 252.09 577.90 255.90 563.12 258.52 548.09 Z" />
<path fill="#0e5994" d=" M 621.27 554.63 C 621.73 552.41 622.21 550.20 622.68 547.99 C 624.46 547.99 626.26 548.00 628.07 548.00 C 628.48 550.19 627.81 552.36 627.39 554.50 C 625.34 554.56 623.30 554.60 621.27 554.63 Z" />
<path fill="#0e5994" d=" M 814.39 548.01 C 816.37 547.99 818.35 547.99 820.35 547.99 C 817.23 562.92 814.07 577.84 810.81 592.74 C 808.88 592.80 806.95 592.83 805.04 592.88 C 805.26 591.94 805.69 590.05 805.90 589.11 C 801.19 596.02 787.80 595.38 785.69 586.57 C 783.03 575.96 788.37 561.72 800.12 559.55 C 804.44 558.45 808.63 560.51 811.15 564.00 C 811.99 558.62 813.45 553.37 814.39 548.01 Z" />
<path fill="#fdfdfe" d=" M 1140.31 561.93 C 1138.05 556.63 1142.16 549.73 1148.00 549.51 C 1152.88 548.99 1157.49 553.15 1157.56 558.05 C 1158.23 563.61 1152.73 568.97 1147.17 567.90 C 1146.19 567.99 1144.74 566.86 1145.52 565.87 C 1146.80 563.97 1146.60 561.63 1146.71 559.47 C 1150.36 560.10 1150.14 565.84 1154.23 565.46 C 1153.38 563.42 1152.24 561.54 1151.03 559.72 C 1152.04 559.12 1153.07 558.51 1154.11 557.92 C 1153.78 556.15 1154.53 553.52 1152.52 552.59 C 1149.88 551.52 1146.95 552.11 1144.20 552.03 C 1144.32 556.56 1143.89 561.12 1144.60 565.63 C 1142.36 566.10 1140.83 563.81 1140.31 561.93 Z" />
<path fill="#0e5994" d=" M 520.16 550.96 C 521.81 550.98 523.47 550.99 525.14 551.00 C 524.62 554.07 523.98 557.11 523.39 560.16 C 525.11 560.20 526.84 560.25 528.57 560.30 C 528.18 561.95 527.80 563.60 527.43 565.25 C 525.70 565.26 523.98 565.27 522.27 565.30 C 520.95 571.33 519.60 577.37 518.43 583.44 C 517.72 585.08 517.49 586.77 518.88 588.15 C 519.78 588.09 521.59 587.97 522.49 587.91 C 522.15 589.53 521.85 591.16 521.56 592.79 C 518.40 593.07 515.12 593.30 512.15 591.97 C 511.70 587.19 513.18 582.58 513.47 577.85 C 514.38 573.66 514.93 569.32 516.68 565.38 C 515.35 565.32 514.03 565.27 512.71 565.24 C 512.56 564.83 512.26 564.02 512.12 563.61 C 512.74 562.55 513.23 561.43 513.58 560.26 C 514.80 560.23 516.04 560.21 517.28 560.20 C 517.94 557.04 518.29 553.70 520.16 550.96 Z" />
<path fill="#0e5994" d=" M 604.27 551.05 C 606.28 551.00 608.30 550.99 610.33 550.98 C 609.70 554.05 609.06 557.12 608.43 560.19 C 610.17 560.20 611.93 560.23 613.68 560.26 C 613.25 561.94 612.83 563.62 612.40 565.32 C 610.69 565.28 609.00 565.27 607.31 565.26 C 605.86 572.22 604.28 579.16 602.93 586.15 C 603.15 586.64 603.59 587.62 603.81 588.12 C 604.75 588.07 606.62 587.99 607.56 587.95 C 607.24 589.56 606.92 591.18 606.62 592.81 C 603.30 592.72 598.39 594.31 596.62 590.48 C 596.08 586.92 597.43 583.44 598.10 580.00 C 599.46 575.12 599.75 569.98 601.66 565.26 C 600.07 565.25 598.47 565.24 596.90 565.25 C 597.15 563.65 597.44 562.08 597.70 560.50 C 599.25 560.36 600.79 560.23 602.35 560.14 C 603.08 557.13 603.71 554.09 604.27 551.05 Z" />
<path fill="#fdfdfe" d=" M 1146.47 557.80 C 1146.54 556.46 1146.64 555.13 1146.75 553.81 C 1148.57 554.04 1152.27 553.75 1151.65 556.64 C 1150.47 558.31 1148.17 557.51 1146.47 557.80 Z" />
<path fill="#fdfdfe" d=" M 208.31 574.44 C 212.06 568.30 215.47 561.95 219.29 555.85 C 220.31 562.00 221.17 568.20 221.48 574.43 C 217.09 574.50 212.70 574.50 208.31 574.44 Z" />
<path fill="#0e5994" d=" M 633.88 565.02 C 637.88 561.74 642.66 558.95 648.03 559.34 C 652.86 559.25 657.55 562.36 658.85 567.11 C 662.05 578.65 653.58 593.05 641.07 593.65 C 635.72 594.31 629.52 591.20 628.67 585.49 C 627.66 579.12 628.58 571.74 633.12 566.85 C 633.31 566.40 633.69 565.48 633.88 565.02 Z" />
<path fill="#0e5994" d=" M 673.40 563.63 C 677.17 560.87 681.70 558.39 686.56 559.58 C 690.68 560.04 693.78 564.00 693.02 568.14 C 691.99 576.48 689.61 584.61 687.95 592.84 C 685.95 592.83 683.96 592.84 681.98 592.85 C 683.44 586.21 684.88 579.57 686.30 572.92 C 686.89 570.61 686.68 568.23 686.41 565.91 C 683.61 564.71 680.37 564.07 677.58 565.68 C 673.86 567.19 672.20 571.21 671.37 574.86 C 670.07 580.82 668.73 586.77 667.56 592.75 C 665.50 592.80 663.45 592.80 661.41 592.73 C 663.80 581.89 666.20 571.05 668.52 560.19 C 670.21 560.21 671.92 560.17 673.63 560.36 C 674.98 562.13 672.71 563.09 672.45 564.61 C 672.69 564.36 673.16 563.88 673.40 563.63 Z" />
<path fill="#0e5994" d=" M 865.36 564.89 C 868.25 561.61 872.14 559.06 876.67 559.19 C 876.95 561.24 876.66 563.28 876.23 565.29 C 871.45 565.24 866.10 567.11 864.45 572.03 C 862.31 578.82 861.26 585.91 859.63 592.84 C 857.74 592.83 855.85 592.83 853.98 592.83 C 855.75 581.84 858.55 571.04 860.88 560.16 C 862.61 560.19 864.36 560.22 866.11 560.26 C 865.86 561.80 865.62 563.35 865.36 564.89 Z" />
<path fill="#0e5994" d=" M 938.14 564.18 C 942.70 559.69 950.13 557.50 955.83 561.21 C 958.65 563.00 959.11 566.86 958.45 569.88 C 956.87 577.52 955.09 585.12 953.57 592.78 C 951.53 592.80 949.49 592.80 947.48 592.74 C 949.02 586.37 950.06 579.88 951.71 573.53 C 952.10 571.43 952.77 569.14 951.96 567.07 C 949.67 563.49 944.36 564.28 941.38 566.52 C 937.13 569.41 936.05 574.75 935.21 579.47 C 934.51 583.97 932.94 588.28 932.39 592.81 C 930.31 592.81 928.24 592.79 926.18 592.78 C 928.68 582.01 931.02 571.19 933.19 560.35 C 935.09 560.27 936.98 560.22 938.90 560.19 C 938.71 561.19 938.33 563.18 938.14 564.18 Z" />
<path fill="#0e5994" d=" M 963.46 572.53 C 966.11 562.97 977.45 556.85 986.82 560.30 C 993.50 563.52 994.14 573.20 990.86 579.05 C 983.13 578.91 975.39 579.09 967.65 578.95 C 967.33 582.05 967.41 585.65 970.46 587.43 C 975.54 590.12 982.80 587.46 984.82 581.98 C 986.61 581.98 988.42 582.00 990.24 582.05 C 987.86 591.73 975.52 596.24 966.78 592.42 C 964.63 591.52 963.43 589.46 962.34 587.55 C 961.91 582.53 961.65 577.33 963.46 572.53 Z" />
<path fill="#0e5994" d=" M 1025.35 565.00 C 1028.31 561.73 1032.19 559.08 1036.77 559.16 C 1037.15 561.23 1036.74 563.30 1036.22 565.31 C 1031.49 565.27 1026.18 567.23 1024.49 572.05 C 1022.43 578.86 1021.38 585.94 1019.70 592.86 C 1017.73 592.83 1015.77 592.81 1013.83 592.79 C 1016.05 581.92 1018.49 571.08 1020.85 560.23 C 1022.68 560.22 1024.51 560.21 1026.37 560.21 C 1026.03 561.80 1025.71 563.40 1025.35 565.00 Z" />
<path fill="#0e5994" d=" M 284.63 560.36 C 286.88 560.21 289.14 560.20 291.39 560.31 C 292.02 568.80 293.92 577.21 293.81 585.74 C 294.12 585.60 294.73 585.33 295.04 585.19 C 297.67 579.07 301.20 573.40 304.28 567.51 C 305.52 565.12 306.37 562.30 308.42 560.48 C 310.43 560.03 312.52 560.21 314.58 560.12 C 307.28 573.74 299.89 587.34 291.33 600.23 C 289.93 602.15 288.47 604.17 286.35 605.34 C 283.68 606.45 280.71 606.28 277.91 605.91 C 278.27 604.03 278.67 602.16 279.13 600.31 C 281.23 600.73 284.05 601.70 285.57 599.54 C 287.42 597.13 290.21 594.46 289.39 591.14 C 287.70 580.90 286.37 570.60 284.63 560.36 Z" />
<path fill="#0e5994" d=" M 326.37 560.48 C 330.87 558.74 336.31 558.80 340.36 561.65 C 343.15 563.49 344.33 566.91 344.91 570.06 C 345.65 578.16 341.49 586.42 334.81 591.00 C 330.50 593.54 325.04 594.47 320.23 592.89 C 316.07 591.54 313.41 587.35 313.04 583.12 C 312.16 573.85 317.59 563.96 326.37 560.48 Z" />
<path fill="#0e5994" d=" M 353.25 560.29 C 355.20 560.25 357.15 560.21 359.11 560.19 C 358.06 568.22 355.60 576.00 354.52 584.02 C 354.05 585.91 355.49 587.16 356.66 588.39 C 359.21 588.23 362.10 588.90 364.33 587.29 C 367.23 585.35 369.40 582.35 370.20 578.94 C 371.74 572.74 372.88 566.44 374.30 560.20 C 376.20 560.21 378.10 560.23 380.00 560.25 C 378.28 571.16 375.29 581.85 373.26 592.72 C 371.39 592.78 369.52 592.84 367.66 592.92 C 367.92 591.36 368.22 589.83 368.59 588.31 C 364.24 594.15 354.96 595.66 349.23 591.02 C 348.74 584.41 348.87 577.60 351.13 571.29 C 351.50 567.56 352.56 563.96 353.25 560.29 Z" />
<path fill="#0e5994" d=" M 392.50 564.97 C 395.87 561.78 399.91 558.92 404.81 559.22 C 404.40 561.29 403.97 563.35 403.51 565.42 C 400.31 565.52 396.81 565.99 394.54 568.50 C 390.64 572.09 390.81 577.70 389.54 582.46 C 388.33 585.79 389.07 589.48 387.85 592.84 C 385.88 592.83 383.92 592.84 381.96 592.85 C 382.81 586.68 384.62 580.69 385.58 574.54 C 386.10 572.92 386.35 571.23 386.56 569.55 C 387.05 568.23 387.22 566.85 387.38 565.47 C 388.05 563.75 388.52 561.96 389.00 560.18 C 390.65 560.19 392.30 560.22 393.96 560.26 C 393.54 561.85 393.05 563.42 392.50 564.97 Z" />
<path fill="#0e5994" d=" M 426.57 560.27 C 428.28 560.22 429.99 560.18 431.71 560.14 C 431.81 561.50 431.79 562.89 431.45 564.23 C 435.41 559.27 443.23 557.62 448.54 561.37 C 453.49 565.35 453.03 572.62 451.38 578.12 C 449.16 585.93 442.78 593.89 433.97 593.68 C 430.57 594.20 427.69 592.18 425.51 589.83 C 425.66 590.31 425.96 591.28 426.11 591.77 C 424.90 596.42 423.86 601.11 422.91 605.82 C 420.95 605.79 418.99 605.76 417.03 605.74 C 419.07 594.97 421.66 584.31 423.62 573.52 C 425.12 569.24 425.77 564.72 426.57 560.27 Z" />
<path fill="#0e5994" d=" M 466.24 564.86 C 468.99 561.44 473.06 558.98 477.59 559.29 C 477.16 561.32 476.75 563.36 476.34 565.40 C 471.66 565.19 466.46 567.46 465.13 572.30 C 463.38 579.06 462.06 585.93 460.61 592.77 C 458.62 592.80 456.63 592.84 454.64 592.89 C 456.72 581.95 459.34 571.12 461.63 560.23 C 463.36 560.22 465.10 560.21 466.84 560.22 C 466.67 561.76 466.47 563.31 466.24 564.86 Z" />
<path fill="#0e5994" d=" M 489.26 560.45 C 495.17 558.12 503.52 559.19 506.48 565.49 C 509.51 572.21 507.24 580.26 503.03 585.97 C 498.78 591.85 490.92 595.07 483.83 593.12 C 480.61 592.29 477.99 589.80 476.79 586.74 C 473.78 576.54 479.28 564.44 489.26 560.45 Z" />
<path fill="#0e5994" d=" M 542.30 560.35 C 547.11 558.78 553.64 558.55 557.02 563.01 C 560.06 567.76 558.84 573.66 558.59 578.95 C 550.66 579.08 542.73 578.96 534.80 579.00 C 533.97 582.64 535.11 586.48 538.53 588.30 C 543.68 589.32 549.65 587.24 551.66 582.07 C 553.41 582.00 555.17 581.98 556.94 581.98 C 556.86 582.62 556.69 583.91 556.61 584.56 C 552.67 592.45 542.43 595.82 534.42 592.52 C 529.58 590.60 527.92 584.85 528.53 580.09 C 529.46 571.86 534.05 563.16 542.30 560.35 Z" />
<path fill="#0e5994" d=" M 563.86 574.86 C 565.75 568.35 570.45 562.37 577.04 560.22 C 581.50 558.88 587.05 558.67 590.63 562.15 C 593.12 564.51 593.37 568.10 593.32 571.33 C 591.41 571.71 589.46 571.82 587.52 571.85 C 587.26 569.50 586.92 566.76 584.65 565.46 C 581.54 563.92 577.47 564.59 574.96 566.99 C 570.74 570.72 569.17 576.65 569.13 582.10 C 569.01 584.70 570.53 586.88 572.65 588.25 C 575.17 588.30 578.04 588.96 580.21 587.25 C 582.46 585.96 583.78 583.65 584.80 581.35 C 586.85 581.35 588.91 581.37 590.98 581.39 C 589.06 586.55 585.26 591.36 579.80 592.96 C 574.88 594.40 568.66 594.05 565.13 589.88 C 561.84 585.63 562.39 579.70 563.86 574.86 Z" />
<path fill="#0e5994" d=" M 620.10 560.22 C 622.08 560.21 624.06 560.20 626.06 560.20 C 623.67 571.09 621.33 581.98 618.91 592.86 C 616.95 592.84 615.00 592.83 613.05 592.83 C 615.38 581.96 617.73 571.09 620.10 560.22 Z" />
<path fill="#0e5994" d=" M 721.03 560.19 C 723.00 560.20 724.97 560.22 726.96 560.24 C 725.62 567.67 723.89 575.02 722.38 582.42 C 721.90 583.96 722.43 585.51 722.69 587.04 C 725.96 589.22 730.53 588.83 733.55 586.37 C 736.38 584.02 737.75 580.42 738.46 576.91 C 739.58 571.33 740.87 565.79 742.03 560.23 C 744.01 560.22 745.99 560.20 747.99 560.21 C 745.67 571.07 743.21 581.91 740.92 592.78 C 739.06 592.81 737.20 592.83 735.36 592.88 C 735.53 591.89 735.89 589.91 736.06 588.92 C 731.22 594.27 720.93 596.19 716.35 589.60 C 716.37 587.60 716.36 585.60 716.44 583.62 C 717.01 581.99 717.28 580.27 717.57 578.58 C 718.49 574.18 718.43 569.60 720.10 565.35 C 720.33 563.61 720.65 561.90 721.03 560.19 Z" />
<path fill="#0e5994" d=" M 756.43 560.27 C 758.14 560.22 759.85 560.17 761.58 560.10 C 761.17 561.54 760.85 562.99 760.56 564.46 C 764.88 559.83 772.33 557.55 778.03 560.95 C 781.38 563.08 781.42 567.48 780.66 570.94 C 779.10 578.25 777.46 585.53 775.91 592.84 C 773.93 592.83 771.95 592.84 769.98 592.84 C 771.43 585.85 773.12 578.91 774.51 571.91 C 774.74 569.83 775.29 567.11 773.42 565.60 C 769.16 563.35 763.75 565.49 761.20 569.30 C 758.50 573.33 757.85 578.33 757.51 583.06 C 757.08 586.32 756.08 589.47 755.60 592.73 C 753.50 592.79 751.42 592.80 749.34 592.75 C 750.46 587.71 751.66 582.68 752.56 577.59 C 753.03 575.94 753.34 574.25 753.60 572.56 C 753.95 571.21 754.21 569.86 754.44 568.50 C 755.40 565.84 755.95 563.05 756.43 560.27 Z" />
<path fill="#0e5994" d=" M 821.11 574.90 C 823.11 567.80 828.56 561.02 836.14 559.70 C 840.56 558.77 846.00 559.34 848.69 563.46 C 851.61 568.06 850.84 573.92 849.81 579.01 C 841.95 579.02 834.09 578.93 826.24 579.08 C 825.66 582.37 826.26 586.00 829.08 588.12 C 834.67 589.50 840.77 587.37 843.37 582.02 C 845.24 582.07 847.33 581.57 848.98 582.80 C 848.57 583.50 847.74 584.90 847.33 585.59 C 844.67 589.27 841.05 592.57 836.42 593.38 C 831.75 594.06 826.18 594.01 822.71 590.30 C 819.08 586.06 819.57 579.90 821.11 574.90 Z" />
<path fill="#0e5994" d=" M 904.45 561.36 C 910.11 558.28 917.81 558.55 922.57 563.20 C 923.32 565.27 923.89 567.42 924.67 569.50 C 924.42 576.33 923.32 584.08 917.71 588.70 C 913.10 593.41 905.51 595.06 899.44 592.47 C 895.98 591.01 893.85 587.46 893.35 583.85 C 892.19 575.07 896.73 565.74 904.45 561.36 Z" />
<path fill="#0e5994" d=" M 1047.91 560.95 C 1052.72 558.83 1058.86 558.48 1063.30 561.67 C 1067.16 564.76 1068.01 570.17 1067.41 574.83 C 1066.50 581.11 1063.21 587.26 1057.83 590.80 C 1052.93 593.92 1046.26 594.82 1041.02 592.02 C 1035.14 587.97 1035.80 579.55 1037.42 573.46 C 1039.90 568.60 1042.85 563.48 1047.91 560.95 Z" />
<path fill="#0e5994" d=" M 1071.38 579.98 C 1071.88 571.65 1076.91 563.09 1085.03 560.22 C 1090.13 558.54 1096.97 558.98 1100.22 563.81 C 1103.91 569.30 1102.74 576.54 1100.26 582.28 C 1098.87 586.15 1095.43 588.63 1092.60 591.40 C 1087.76 593.86 1081.79 594.64 1076.81 592.15 C 1072.44 589.96 1071.09 584.50 1071.38 579.98 Z" />
<path fill="#fdfdfe" d=" M 324.94 567.03 C 328.51 563.64 335.60 563.25 337.94 568.25 C 340.02 575.13 337.04 583.14 331.30 587.38 C 328.83 588.45 326.12 588.48 323.48 588.37 C 321.83 586.84 319.73 585.36 319.44 582.96 C 318.62 577.23 320.70 571.00 324.94 567.03 Z" />
<path fill="#fdfdfe" d=" M 430.75 570.73 C 432.81 566.03 438.67 563.07 443.49 565.49 C 446.80 567.46 446.44 571.80 445.98 575.08 C 445.11 579.44 443.63 584.18 439.88 586.93 C 436.57 589.20 431.59 589.14 428.84 585.98 C 427.67 580.84 428.84 575.52 430.75 570.73 Z" />
<path fill="#fdfdfe" d=" M 490.32 565.36 C 493.56 563.85 498.33 564.05 500.35 567.42 C 502.76 572.01 501.23 577.46 499.05 581.83 C 496.99 585.98 492.40 589.47 487.56 588.26 C 483.70 587.74 481.75 583.49 482.09 579.96 C 482.51 574.27 485.07 568.16 490.32 565.36 Z" />
<path fill="#fdfdfe" d=" M 536.20 574.14 C 537.13 567.64 545.09 562.34 551.23 565.74 C 553.78 567.34 555.57 571.98 552.64 574.01 C 547.17 574.32 541.68 574.00 536.20 574.14 Z" />
<path fill="#fdfdfe" d=" M 636.39 571.47 C 638.48 567.20 642.97 563.68 647.96 564.57 C 651.84 565.12 653.65 569.39 653.46 572.92 C 653.15 577.45 651.67 582.13 648.48 585.47 C 645.37 588.87 639.83 589.30 636.00 586.90 C 635.55 585.99 635.10 585.09 634.64 584.21 C 634.95 579.95 633.94 575.27 636.39 571.47 Z" />
<path fill="#fdfdfe" d=" M 793.09 571.30 C 794.63 566.56 799.97 563.47 804.81 565.03 C 807.90 565.76 808.53 569.33 808.68 572.03 C 808.36 577.13 807.45 582.89 803.34 586.41 C 800.77 588.56 797.29 588.54 794.15 588.29 C 789.05 584.00 791.01 576.62 793.09 571.30 Z" />
<path fill="#fdfdfe" d=" M 827.54 574.10 C 828.76 566.88 838.28 561.44 844.28 566.95 C 844.59 569.33 844.78 571.74 844.55 574.15 C 838.88 574.08 833.21 574.15 827.54 574.10 Z" />
<path fill="#fdfdfe" d=" M 905.08 567.00 C 907.60 564.52 911.58 563.83 914.86 565.06 C 918.15 566.80 919.57 571.05 918.62 574.55 C 917.87 579.50 915.57 584.61 911.13 587.27 C 908.88 588.81 906.02 588.32 903.46 588.33 C 901.72 586.89 899.80 585.32 899.54 582.91 C 898.71 577.18 900.80 570.94 905.08 567.00 Z" />
<path fill="#fdfdfe" d=" M 976.26 565.48 C 979.82 563.71 985.55 564.65 986.56 569.07 C 986.78 570.69 987.79 572.97 985.96 574.02 C 980.66 574.23 975.33 574.17 970.04 574.04 C 968.69 571.97 970.60 570.29 971.82 568.81 C 973.05 567.41 974.49 566.15 976.26 565.48 Z" />
<path fill="#fdfdfe" d=" M 1047.96 566.98 C 1051.22 563.84 1057.74 563.17 1060.27 567.55 C 1062.86 572.83 1060.90 579.19 1057.89 583.86 C 1055.45 587.79 1050.27 589.35 1045.97 587.92 C 1044.50 587.06 1043.65 585.54 1042.71 584.20 C 1042.44 578.16 1042.96 571.15 1047.96 566.98 Z" />
<path fill="#fdfdfe" d=" M 1082.94 566.99 C 1086.39 563.56 1093.73 563.23 1095.73 568.40 C 1097.16 573.86 1095.67 579.93 1092.40 584.47 C 1089.48 588.54 1083.38 589.64 1079.20 586.93 C 1078.91 586.35 1078.33 585.19 1078.04 584.60 C 1076.60 578.42 1078.41 571.48 1082.94 566.99 Z" />
</svg>
