<svg id="Layer_1" data-name="Layer 1" xmlns="http://www.w3.org/2000/svg" viewBox="0 0 393.65 113.49"><defs><style>.cls-1{fill:#221f1f;}.cls-1,.cls-2{fill-rule:evenodd;}.cls-2{fill:#221f1f;}</style></defs><title>QBE_white_header_logo</title><path class="cls-1" d="M612.69,458.61a63.24,63.24,0,0,0-18-11.72,50.62,50.62,0,0,0-19.59-4,39.13,39.13,0,0,0-5.52.43,32.58,32.58,0,0,0-5.19,1.23,41,41,0,0,0,14.4,13A38.81,38.81,0,0,0,597.2,462a35.6,35.6,0,0,0,7.43-.82,51,51,0,0,0,8.06-2.61m12-8.88A41.41,41.41,0,0,0,636,420.11a39.33,39.33,0,0,0-2.73-14.48,39.76,39.76,0,0,0-8-12.58,41,41,0,0,0-13.19-9.85,39.12,39.12,0,0,0-30.45-.25,36.92,36.92,0,0,0-12.38,8.46A41.13,41.13,0,0,0,560.34,405a41.85,41.85,0,0,0-3.12,16,36,36,0,0,0,.39,5.39,54,54,0,0,0,1.25,6,29.17,29.17,0,0,1,8-2.73,50.07,50.07,0,0,1,10-.88,60.34,60.34,0,0,1,24.51,5.39,85.46,85.46,0,0,1,23.34,15.48m2.1,19.08a56.4,56.4,0,0,1-48.72,5.82,54.43,54.43,0,0,1-16.13-8.95,55.23,55.23,0,0,1-15.61-19.94,59.76,59.76,0,0,1-5.43-25.5,55.19,55.19,0,0,1,4.34-21.64A59.58,59.58,0,0,1,558,380a55.56,55.56,0,0,1,17.65-11.81,54,54,0,0,1,20.84-4,55.66,55.66,0,0,1,21.25,4,57.46,57.46,0,0,1,30.46,30.73,59.87,59.87,0,0,1,4.23,22.69A57.36,57.36,0,0,1,649,441.37a54.13,54.13,0,0,1-10.28,16.93,28.13,28.13,0,0,0,6,2,30,30,0,0,0,6.58.66h2v15.25h-1.43a44,44,0,0,1-12.35-1.85,64.73,64.73,0,0,1-12.8-5.59m51.45-56.68h5.1c8.24,0,14.12-1.25,17.67-3.75s5.24-6.64,5.24-12.44c0-5.1-1.59-8.85-4.76-11.32s-8.09-3.7-14.65-3.7h-8.6v31.21Zm-0.14,49.18H690.7q11,0,16.24-4.15c3.49-2.75,5.23-7,5.23-12.78q0-9.37-5.43-14.22c-3.63-3.21-9-4.86-16-4.86H678.09v36Zm8-95.41c11.8,0,20.72,2.58,26.86,7.72s9.17,12.67,9.17,22.52a23.84,23.84,0,0,1-3,12.07,24.23,24.23,0,0,1-8.8,8.64,22.87,22.87,0,0,1,12.78,9.31,28.22,28.22,0,0,1,4.71,16.44A37.1,37.1,0,0,1,725,457.11a28.85,28.85,0,0,1-19.29,17.29c-4.2,1.23-10.17,1.82-17.84,1.82H662.45V365.9h23.68Zm106,110.32H734.79V365.9H792.1v14.73H750.79v33H792.1v14.33H750.79V461H792.1v15.22Z" transform="translate(-398.45 -364.2)"/><path class="cls-2" d="M491,446.72a12,12,0,0,0,12-12,11.76,11.76,0,0,0-1.68-6.16L476.65,386A28.82,28.82,0,0,0,464,366.18,24.5,24.5,0,0,1,489.8,378L515,421.62a24.51,24.51,0,0,1-42.11,25.1M490.93,427H460.21l-8.86,15.36h39.58a7.68,7.68,0,0,0,0-15.36m-30.27-40.8,9,15.67A24.5,24.5,0,0,0,426.94,378l-25.19,43.62a24.55,24.55,0,0,0,2.64,28.28,28.87,28.87,0,0,1,10.79-20.85l24.64-42.65a11.83,11.83,0,0,1,4.46-4.54,12,12,0,0,1,16.38,4.37m-17,9.88L459,422.69h17.75l-19.82-34.27a7.68,7.68,0,0,0-13.29,7.69m-20.21,46.63,9.08-15.67a24.51,24.51,0,0,0,.68,49h50.37a24.47,24.47,0,0,0,23.12-16.41,28.89,28.89,0,0,1-23.43,1H434a11.87,11.87,0,0,1-6.16-1.61,12,12,0,0,1-4.42-16.36m17.08,9.83,15.37-26.64L447,410.6l-19.77,34.27a7.68,7.68,0,0,0,13.29,7.7" transform="translate(-398.45 -364.2)"/></svg>
