<svg xmlns="http://www.w3.org/2000/svg" xmlns:xlink="http://www.w3.org/1999/xlink" viewBox="0 0 85.5 67.94"><defs><style>.cls-1{fill:none;}.cls-2{clip-path:url(#clip-path);}.cls-3{fill:#02363d;}</style><clipPath id="clip-path"><rect class="cls-1" width="85.5" height="67.94"/></clipPath></defs><title>z-logo</title><g id="Layer_2" data-name="Layer 2"><g id="Layer_1-2" data-name="Layer 1"><g class="cls-2"><path class="cls-3" d="M40.67,0A12.6,12.6,0,0,1,28,12.57,12.6,12.6,0,0,1,15.42,0Z"/><path class="cls-3" d="M44.83,41.26a12.63,12.63,0,0,1,25.25,0Z"/></g><polygon class="cls-3" points="40.67 10.9 40.67 41.26 15.42 41.26 40.67 10.9"/><polygon class="cls-3" points="44.83 0 44.83 30.36 70.08 0 44.83 0"/><g class="cls-2"><path class="cls-3" d="M59.92,61.23A2.77,2.77,0,0,0,57,58.63a3,3,0,0,0-3.12,2.6ZM57.28,65.7a4.29,4.29,0,0,0,3-1.18l1.51,1.63a6,6,0,0,1-4.53,1.79c-3.69,0-6.07-2.45-6.07-5.76A5.65,5.65,0,0,1,57,56.42c3.66,0,5.74,2.79,5.56,6.65H53.87a3.12,3.12,0,0,0,3.41,2.63"/></g><polygon class="cls-3" points="0.16 56.69 0.16 58.81 6.67 58.81 0 65.58 0 67.75 9.84 67.75 9.84 65.63 3.09 65.63 9.75 58.86 9.75 56.69 0.16 56.69"/><g class="cls-2"><path class="cls-3" d="M20.38,61.23a2.77,2.77,0,0,0-2.92-2.6,3,3,0,0,0-3.12,2.6ZM17.74,65.7a4.29,4.29,0,0,0,3-1.18l1.51,1.63a6,6,0,0,1-4.53,1.79c-3.69,0-6.07-2.45-6.07-5.76a5.65,5.65,0,0,1,5.74-5.76c3.66,0,5.74,2.79,5.56,6.65H14.34a3.12,3.12,0,0,0,3.41,2.63"/><path class="cls-3" d="M46.76,62.17a3.51,3.51,0,1,0-3.51,3.61,3.5,3.5,0,0,0,3.51-3.61m-9.38,0a5.53,5.53,0,0,1,5.55-5.75,4.79,4.79,0,0,1,3.69,1.66V51.57H49V67.72H46.63V66.19a4.73,4.73,0,0,1-3.71,1.75,5.58,5.58,0,0,1-5.53-5.75"/><path class="cls-3" d="M63.9,65.37,66,64.27a3.16,3.16,0,0,0,2.84,1.62c1.33,0,2-.68,2-1.46S69.61,63.34,68.21,63c-1.89-.4-3.84-1-3.84-3.3,0-1.75,1.67-3.36,4.29-3.34a5.07,5.07,0,0,1,4.47,2.15l-2,1.09a2.87,2.87,0,0,0-2.49-1.26c-1.27,0-1.91.62-1.91,1.33s1,1,2.62,1.37c1.82.4,3.89,1,3.89,3.3,0,1.53-1.33,3.58-4.49,3.56a5.2,5.2,0,0,1-4.86-2.57"/></g><polygon class="cls-3" points="75.17 51.57 75.17 67.72 77.52 67.72 77.52 64.84 79.39 62.81 82.83 67.72 85.5 67.72 81.06 61.39 85.39 56.66 82.52 56.66 77.52 62.14 77.52 51.57 75.17 51.57"/><g class="cls-2"><path class="cls-3" d="M30.37,56.43c-2.8,0-5.14,1.81-5.14,4.82v6.46h2.4V61.56a2.63,2.63,0,0,1,2.82-2.9c1.78,0,2.67,1.09,2.67,2.9v6.16h2.4V61.26c0-3-2.34-4.82-5.14-4.82"/></g></g></g></svg>